<?xml version="1.0" encoding="utf-8"?>
<!-- Generator: Adobe Illustrator 23.0.1, SVG Export Plug-In . SVG Version: 6.00 Build 0)  -->
<svg version="1.1" id="Capa_1" xmlns="http://www.w3.org/2000/svg" xmlns:xlink="http://www.w3.org/1999/xlink" x="0px" y="0px"
	 viewBox="0 0 128 128" style="enable-background:new 0 0 128 128;" xml:space="preserve">
<style type="text/css">
	.st0{fill:#FFD4DA;}
	.st1{fill:#FE4962;}
	.st2{fill:none;stroke:#FE4962;stroke-width:5;stroke-linecap:round;}
</style>
<g transform="translate(730 -1114)">
	<g transform="translate(-766 1076.714)">
		<g transform="translate(36 37.286)">
			<circle class="st0" cx="64" cy="64" r="62.5"/>
			<g>
				<path class="st1" d="M64,5.5c32.3,0,58.5,26.2,58.5,58.5S96.3,122.5,64,122.5S5.5,96.3,5.5,64S31.7,5.5,64,5.5 M64,1.5
					C29.5,1.5,1.5,29.5,1.5,64s28,62.5,62.5,62.5s62.5-28,62.5-62.5S98.5,1.5,64,1.5L64,1.5z"/>
			</g>
		</g>
	</g>
	<g transform="translate(-15742.5 455.5)">
		<path class="st2" d="M15057,745l29.5-36.2l9.4-11.3"/>
		<path class="st2" d="M15055.9,698.3l30.3,35.9l9.6,11.3"/>
	</g>
</g>
</svg>
